<svg width="88" height="88" viewBox="0 0 88 88" fill="none" xmlns="http://www.w3.org/2000/svg">
<path d="M78.6793 60.4999C78.6793 56.6101 77.134 52.8796 74.3835 50.129C71.633 47.3785 67.9025 45.8333 64.0126 45.8333H62.1793V43.9999C62.1793 43.0275 61.793 42.0948 61.1053 41.4072C60.4177 40.7196 59.4851 40.3333 58.5126 40.3333H14.5126C13.5402 40.3333 12.6075 40.7196 11.9199 41.4072C11.2323 42.0948 10.8459 43.0275 10.8459 43.9999V78.8333C10.8459 80.037 11.0831 81.229 11.5437 82.3412C12.0044 83.4533 12.6796 84.4639 13.5308 85.3151C14.382 86.1663 15.3925 86.8415 16.5047 87.3021C17.6168 87.7628 18.8088 87.9999 20.0126 87.9999H53.0126C54.2164 87.9999 55.4084 87.7628 56.5205 87.3021C57.6327 86.8415 58.6432 86.1663 59.4944 85.3151C60.3456 84.4639 61.0208 83.4533 61.4815 82.3412C61.9422 81.229 62.1793 80.037 62.1793 78.8333V75.1666H64.0126C67.9025 75.1666 71.633 73.6213 74.3835 70.8708C77.134 68.1203 78.6793 64.3898 78.6793 60.4999ZM64.0126 67.8333H63.0959C62.9754 67.8337 62.856 67.8104 62.7446 67.7645C62.6331 67.7186 62.5319 67.6511 62.4467 67.5658C62.3615 67.4806 62.294 67.3794 62.2481 67.268C62.2022 67.1565 62.1788 67.0371 62.1793 66.9166V54.0833C62.1793 53.8401 62.2759 53.607 62.4478 53.4351C62.6197 53.2632 62.8528 53.1666 63.0959 53.1666H64.0126C65.9575 53.1666 67.8228 53.9392 69.1981 55.3145C70.5733 56.6897 71.3459 58.555 71.3459 60.4999C71.3459 62.4448 70.5733 64.3101 69.1981 65.6854C67.8228 67.0606 65.9575 67.8333 64.0126 67.8333Z" fill="#D47528"/>
<path d="M20.713 10.505C20.853 10.429 20.9707 10.3179 21.0547 10.1826C21.1386 10.0473 21.1859 9.89249 21.1918 9.73336C21.1978 9.57424 21.1621 9.41631 21.0884 9.27515C21.0148 9.13398 20.9056 9.01444 20.7717 8.92831L12.1 3.3183C11.7998 3.13863 11.4544 3.04861 11.1046 3.0589C10.7549 3.06918 10.4154 3.17934 10.1262 3.37635C9.83709 3.57336 9.61035 3.849 9.4728 4.17072C9.33525 4.49245 9.29264 4.84681 9.35 5.19197L10.8973 14.4686C10.9211 14.613 10.9792 14.7496 11.0665 14.867C11.1539 14.9844 11.2682 15.0791 11.3997 15.1433C11.5298 15.2093 11.6736 15.2437 11.8195 15.2437C11.9654 15.2437 12.1092 15.2093 12.2393 15.1433L20.713 10.505Z" fill="#D47528"/>
<path d="M13.3688 18.678C13.1593 18.7943 13.0036 18.9879 12.935 19.2175C12.8665 19.447 12.8906 19.6943 13.0021 19.9064L21.1421 35.673C21.2967 35.9714 21.5303 36.2216 21.8174 36.3962C22.1045 36.5707 22.4341 36.6631 22.7701 36.663H33.7701C34.089 36.6636 34.4025 36.581 34.6797 36.4234C34.9569 36.2658 35.1882 36.0385 35.3508 35.7642C35.5133 35.4898 35.6015 35.1778 35.6066 34.859C35.6117 34.5401 35.5335 34.2255 35.3798 33.946L24.2844 13.7794C24.1682 13.566 23.9719 13.4075 23.7388 13.3387C23.5058 13.27 23.2549 13.2966 23.0414 13.4127L13.3688 18.678Z" fill="#D47528"/>
<path d="M49.6393 26.7411H49.6173C48.798 26.3958 48.0166 25.967 47.2853 25.4614C47.1797 25.3896 47.0604 25.3404 46.9348 25.317C46.8093 25.2935 46.6803 25.2964 46.5559 25.3253C46.4315 25.3543 46.3145 25.4087 46.2122 25.4851C46.1099 25.5615 46.0246 25.6584 45.9616 25.7694L41.4076 33.9424C41.2524 34.2215 41.1728 34.5363 41.1766 34.8556C41.1805 35.1749 41.2677 35.4876 41.4296 35.7629C41.5915 36.0381 41.8224 36.2663 42.0996 36.4248C42.3768 36.5834 42.6906 36.6668 43.0099 36.6668H49.7273C50.0997 36.667 50.4635 36.5539 50.77 36.3423C51.0766 36.1307 51.3114 35.8308 51.4433 35.4824L53.8999 28.9411C53.9493 28.812 53.9688 28.6734 53.957 28.5358C53.9452 28.3981 53.9025 28.2648 53.832 28.146C53.7614 28.0272 53.665 27.9258 53.5497 27.8495C53.4345 27.7732 53.3035 27.724 53.1666 27.7054C52.3186 27.5977 51.4834 27.4061 50.6733 27.1334C50.3323 27.0198 49.9876 26.8878 49.6393 26.7411Z" fill="#D47528"/>
<path d="M62.3956 10.3216C61.838 7.80443 60.5709 5.49973 58.7442 3.68026C56.9176 1.86078 54.608 0.602703 52.0886 0.0549192C51.731 -0.0314665 51.3557 -0.00826194 51.0114 0.121516C50.6672 0.251294 50.3699 0.481641 50.1584 0.782608C49.9468 1.08358 49.8306 1.44124 49.825 1.8091C49.8194 2.17695 49.9246 2.53799 50.127 2.84525C52.0666 5.80059 50.897 7.54592 48.8326 10.1566C48.0377 11.0633 47.3692 12.0735 46.8453 13.1596C46.4028 14.1003 46.1614 15.123 46.1366 16.1624C46.1119 17.2017 46.3042 18.2347 46.7014 19.1955C47.0986 20.1562 47.692 21.0235 48.4434 21.7419C49.1949 22.4603 50.088 23.014 51.0656 23.3676C52.379 24.0358 53.86 24.3024 55.3239 24.1341C56.7878 23.9659 58.1698 23.3703 59.2973 22.4216C60.8443 20.8633 61.9471 18.9201 62.4918 16.7929C63.0365 14.6657 63.0033 12.4316 62.3956 10.3216Z" fill="#D47528"/>
</svg>
