<svg width="88" height="88" viewBox="0 0 88 88" fill="none" xmlns="http://www.w3.org/2000/svg">
<path d="M67.4667 46.9332V35.1999C67.4667 33.5807 68.7808 32.2666 70.4 32.2666H78.7806L77.7891 29.9551C76.8651 27.7991 74.7443 26.3999 72.3976 26.3999H52.8V67.4666H61.7467C61.5003 66.2522 61.5472 64.9351 62.0019 63.577C62.7704 61.2772 64.7446 59.4586 67.1 58.8895C71.9459 57.7162 76.2667 61.3535 76.2667 65.9999C76.2667 66.5015 76.2139 66.9914 76.12 67.4666H85.0667V46.9332H67.4667Z" fill="#D47528"/>
<path d="M68.9334 73.3334C72.9835 73.3334 76.2668 70.0502 76.2668 66.0001C76.2668 61.95 72.9835 58.6667 68.9334 58.6667C64.8833 58.6667 61.6001 61.95 61.6001 66.0001C61.6001 70.0502 64.8833 73.3334 68.9334 73.3334Z" stroke="#D47528" stroke-width="2" stroke-miterlimit="10"/>
<path d="M46.9333 14.6667H8.80002C5.55868 14.6667 2.93335 17.2921 2.93335 20.5334V67.4668H14.8134C14.567 66.2523 14.6139 64.9353 15.0686 63.5771C15.8371 61.2774 17.8112 59.4587 20.1667 58.8897C25.0126 57.7164 29.3334 61.3537 29.3334 66.0001C29.3334 66.5017 29.2806 66.9916 29.1867 67.4668H52.8V20.5334C52.8 17.2921 50.1747 14.6667 46.9333 14.6667Z" fill="#D47528"/>
<path d="M22.0001 73.3334C26.0502 73.3334 29.3334 70.0502 29.3334 66.0001C29.3334 61.95 26.0502 58.6667 22.0001 58.6667C17.95 58.6667 14.6667 61.95 14.6667 66.0001C14.6667 70.0502 17.95 73.3334 22.0001 73.3334Z" stroke="#D47528" stroke-width="2" stroke-miterlimit="10"/>
<path d="M82.1333 64.5334H85.0666" stroke="#D47528" stroke-width="2" stroke-miterlimit="10" stroke-linecap="round"/>
<path d="M2.93335 64.5334H8.80002" stroke="#D47528" stroke-width="2" stroke-miterlimit="10" stroke-linecap="round"/>
</svg>
