<svg width="88" height="88" viewBox="0 0 88 88" fill="none" xmlns="http://www.w3.org/2000/svg">
<path d="M70.125 41.2458C64.0599 41.2458 59.125 46.1807 59.125 52.2459V54.2547C56.6899 53.3843 51.9791 52.2459 44 52.2459C36.0209 52.2459 31.3115 53.3843 28.875 54.2547V52.2459C28.875 46.1807 23.9401 41.2458 17.875 41.2458C14.0841 41.2458 11 44.33 11 48.1209C11 50.9052 12.661 53.3981 15.2336 54.4692C16.0036 54.7923 16.5 55.539 16.5 56.3709L17.875 61.8708C17.875 66.8071 21.6136 70.884 26.4082 71.4298C25.2794 71.9688 24.4929 73.1129 24.4929 74.4466C24.4929 76.2973 25.9944 77.7988 27.8451 77.7988C29.6959 77.7988 31.1974 76.2973 31.1974 74.4466C31.1974 73.1623 30.4659 72.0596 29.4044 71.4958H58.5998C57.5382 72.0582 56.8067 73.161 56.8067 74.4466C56.8067 76.2973 58.3083 77.7988 60.159 77.7988C62.0097 77.7988 63.5112 76.2973 63.5112 74.4466C63.5112 73.1129 62.7248 71.9688 61.5959 71.4298C66.3864 70.884 70.125 66.8071 70.125 61.8708L71.5 56.3709C71.5 55.5376 71.9964 54.7923 72.7664 54.4692C75.339 53.3995 77 50.9052 77 48.1209C77 44.33 73.9159 41.2458 70.125 41.2458Z" fill="#D47528"/>
<path d="M32.6562 49.031C35.5176 48.5085 39.2425 48.1208 44 48.1208C48.7575 48.1208 52.4824 48.5085 55.3438 49.031C56.4245 44.0535 59.9692 39.9918 64.6264 38.1671V30.8274C64.6264 19.4369 55.3919 10.2024 44 10.2024C32.6095 10.2024 23.375 19.4369 23.375 30.8274V38.1685C28.0321 39.9931 31.5755 44.0549 32.6562 49.031Z" fill="#D47528"/>
</svg>
